# xmcd
#
# Track frame offsets:
# 150
# 12418
# 23583
# 35504
# 48924
# 66145
# 79048
# 92831
# 109697
# 126290
#
# Disc length: 1987 seconds
#
#
# Revision: 0
# Processed by: cddbd v1.5PL3 Copyright (c) Steve Scherf et al.
# Submitted via: FreeRIP 2.53 
#
DISCID=7707c10a
DTITLE=Price, Ray - Super Hits
DYEAR=1900
DGENRE=Country
TTITLE0=Release Me
TTITLE1=Crazy Arms
TTITLE2=My Shoes Keep Walking Back To You
TTITLE3=Heartaches By The Number
TTITLE4=She's Got To Be A Saint
TTITLE5=Invitation To The Blues
TTITLE6=City Lights
TTITLE7=I Won't Mention It Again
TTITLE8=For The Good Times
TTITLE9=Danny Boy
EXTD=
EXTT0=
EXTT1=
EXTT2=
EXTT3=
EXTT4=
EXTT5=
EXTT6=
EXTT7=
EXTT8=
EXTT9=
PLAYORDER=
